<svg xmlns="http://www.w3.org/2000/svg" viewBox="0 0 128.83 42.07"><defs><style>.cls-1{fill:#ce0e2d;}</style></defs><g id="Capa_2" data-name="Capa 2"><g id="Capa_1-2" data-name="Capa 1"><rect x="35.47" y="25.86" width="1.73" height="9.84"></rect><polygon points="47.79 35.7 47.79 28.11 44.78 35.7 44.04 35.7 41.02 28.11 41.02 35.7 39.29 35.7 39.29 25.86 41.73 25.86 44.41 32.62 47.08 25.86 49.52 25.86 49.52 35.7 47.79 35.7"></polygon><path d="M51.61,35.7V25.86H56A3.08,3.08,0,1,1,56,32H53.34V35.7ZM57.38,29a1.54,1.54,0,0,0-1.67-1.57H53.34V30.5h2.37A1.54,1.54,0,0,0,57.38,29"></path><path d="M66.22,35.7,64.05,32H62.32V35.7H60.6V25.86h4.32A3,3,0,0,1,68.15,29a2.77,2.77,0,0,1-2.34,2.89l2.42,3.86Zm.16-6.77a1.54,1.54,0,0,0-1.68-1.55H62.32v3.13H64.7a1.56,1.56,0,0,0,1.68-1.58"></path><polygon points="69.88 35.7 69.88 25.86 76.62 25.86 76.62 27.38 71.6 27.38 71.6 29.92 76.52 29.92 76.52 31.44 71.6 31.44 71.6 34.18 76.62 34.18 76.62 35.7 69.88 35.7"></polygon><path d="M77.75,34.32l1-1.35a4.2,4.2,0,0,0,3.11,1.38c1.42,0,2-.7,2-1.36,0-2.07-5.72-.78-5.72-4.4,0-1.64,1.42-2.89,3.59-2.89a5.08,5.08,0,0,1,3.67,1.39l-1,1.28a4,4,0,0,0-2.87-1.14c-1,0-1.65.51-1.65,1.23,0,1.84,5.72.71,5.72,4.37,0,1.64-1.16,3.05-3.8,3.05a5.41,5.41,0,0,1-4-1.56"></path><path d="M86.52,34.32l1-1.35a4.22,4.22,0,0,0,3.12,1.38c1.41,0,2-.7,2-1.36,0-2.07-5.73-.78-5.73-4.4,0-1.64,1.42-2.89,3.59-2.89a5.07,5.07,0,0,1,3.67,1.39l-1,1.28a4,4,0,0,0-2.86-1.14c-1,0-1.66.51-1.66,1.23,0,1.84,5.73.71,5.73,4.37,0,1.64-1.17,3.05-3.81,3.05a5.39,5.39,0,0,1-4-1.56"></path><rect x="95.92" y="25.86" width="1.73" height="9.84"></rect><path d="M99.31,30.79a5,5,0,1,1,10.06,0,5,5,0,1,1-10.06,0m8.29,0a3.27,3.27,0,1,0-6.52,0,3.27,3.27,0,1,0,6.52,0"></path><polygon points="117.89 35.7 112.75 28.67 112.75 35.7 111.02 35.7 111.02 25.86 112.79 25.86 117.83 32.68 117.83 25.86 119.55 25.86 119.55 35.7 117.89 35.7"></polygon><path d="M121,34.32,122,33a4.2,4.2,0,0,0,3.11,1.38c1.42,0,2-.7,2-1.36,0-2.07-5.72-.78-5.72-4.4,0-1.64,1.41-2.89,3.58-2.89a5.09,5.09,0,0,1,3.68,1.39l-1,1.28a4,4,0,0,0-2.86-1.14c-1,0-1.65.51-1.65,1.23,0,1.84,5.72.71,5.72,4.37,0,1.64-1.16,3.05-3.8,3.05a5.41,5.41,0,0,1-4-1.56"></path><path class="cls-1" d="M33.5,14.16c0-4.9,3.74-8,8.33-8a7.2,7.2,0,0,1,6.59,3.74l-3.33,1.73a3.83,3.83,0,0,0-3.26-2,4.24,4.24,0,0,0-4.29,4.46,4.25,4.25,0,0,0,4.29,4.45,4.79,4.79,0,0,0,2.84-.92v-1.2H41.21V13h7.44v6.12a8.87,8.87,0,0,1-6.82,3c-4.59,0-8.33-3.08-8.33-8"></path><rect class="cls-1" x="96.96" y="6.44" width="3.97" height="15.41"></rect><polygon class="cls-1" points="107.15 21.85 107.15 9.9 102.83 9.9 102.83 6.44 115.42 6.44 115.42 9.9 111.13 9.9 111.13 21.85 107.15 21.85"></polygon><polygon class="cls-1" points="117.31 21.85 117.31 6.44 128.61 6.44 128.61 9.9 121.29 9.9 121.29 12.31 128.45 12.31 128.45 15.77 121.29 15.77 121.29 18.38 128.61 18.38 128.61 21.85 117.31 21.85"></polygon><path class="cls-1" d="M61,16.19a4.63,4.63,0,0,0,3.07-4.62,5,5,0,0,0-5.36-5.13H51V21.85h4V16.67h2l2.59,5.18H61l1.23-3.35Zm-2.89-3H55V9.9h3.14a1.67,1.67,0,1,1,0,3.31"></path><path class="cls-1" d="M75.33,21.85l-.76-2.22H68.5l-.76,2.22H63.23L69,6.44h5l5.8,15.41ZM71.55,10.37l-2,5.79h3.91Z"></path><polygon class="cls-1" points="90.2 6.44 90.2 14.92 83.96 6.44 79.87 6.44 79.87 15.83 82.1 21.85 83.85 21.85 83.85 12.93 90.36 21.85 94.19 21.85 94.19 6.44 90.2 6.44"></polygon><path class="cls-1" d="M16.2,3.24a3.24,3.24,0,1,1,3.24,3.24A3.24,3.24,0,0,1,16.2,3.24"></path><path d="M24.83,11.76a3.83,3.83,0,0,1-3.24.21V9.68a2.16,2.16,0,1,0-4.31,0v.77a18.46,18.46,0,0,0-5.4-.79A11.88,11.88,0,0,0,0,21.54,7.4,7.4,0,0,0,1.93,27a6.12,6.12,0,0,0,4.55,2.17c5.08,0,8.37-3.35,10.8-6.87v4.11c-2,1.34-10.8,5.32-10.8,10.3,0,2.74,1.77,5.4,5,5.4,7.62,0,10.07-6.3,10.07-10.8V16.58c.49.09,4.09,1,5.87-1.37s-.62-4.55-2.63-3.45m-17.1,13a3.2,3.2,0,0,1-2.4-1.14,5.35,5.35,0,0,1-1-3.41A6.25,6.25,0,0,1,10.57,14a19.48,19.48,0,0,1,6.53,1.45c-.84,1.49-5.46,9.35-9.37,9.35m9.55,8.93c0,1.9-1.05,4.57-4.27,4.57A2,2,0,0,1,10.8,36c0-1.63,1.53-2.53,1.9-2.82.93-.7,4.58-3,4.58-3Z"></path></g></g></svg>